<?xml version="1.0" encoding="iso-8859-1"?>
<!-- Generator: Adobe Illustrator 19.0.0, SVG Export Plug-In . SVG Version: 6.00 Build 0)  -->
<svg version="1.1" id="Layer_1" xmlns="http://www.w3.org/2000/svg" xmlns:xlink="http://www.w3.org/1999/xlink" x="0px" y="0px"
	 viewBox="0 0 511.999 511.999" style="enable-background:new 0 0 511.999 511.999;" xml:space="preserve">
<g>
	<path style="fill:rgb(196,210,255);" d="M255.996,159.418c-36.473,0-66.145-29.673-66.145-66.145s29.673-66.145,66.145-66.145
		s66.145,29.673,66.145,66.145S292.469,159.418,255.996,159.418z"/>
	<path style="fill:rgb(196,210,255);" d="M362.667,318.735H149.326c-8.818,0-15.967-7.149-15.967-15.967
		c0-67.623,55.015-122.637,122.637-122.637s122.637,55.014,122.637,122.637C378.634,311.587,371.485,318.735,362.667,318.735z"/>
</g>
<g>
	<path style="fill:rgb(196,210,255);" d="M286.974,483.009l-30.976-16.284l-30.976,16.284c-11.69,6.145-25.401-3.808-23.167-16.832
		l5.916-34.492l-25.059-24.427c-9.457-9.219-4.228-25.334,8.849-27.235l34.632-5.033l15.488-31.381
		c5.845-11.843,22.788-11.851,28.636,0l15.488,31.381l34.632,5.033c13.069,1.899,18.312,18.01,8.849,27.235l-25.059,24.427
		l5.916,34.492C312.392,479.3,298.569,489.106,286.974,483.009z"/>
	<path style="fill:rgb(196,210,255);" d="M109.086,483.009l-30.976-16.285l-30.976,16.285c-11.69,6.145-25.401-3.808-23.167-16.832
		l5.916-34.492L4.826,407.259c-9.457-9.218-4.228-25.334,8.849-27.234l34.632-5.033l15.487-31.381
		c5.845-11.843,22.788-11.85,28.636,0l15.488,31.381l34.632,5.033c13.069,1.899,18.311,18.01,8.849,27.235l-25.061,24.427
		l5.916,34.492C134.49,479.212,120.768,489.151,109.086,483.009z"/>
</g>
<path style="fill:rgb(87,101,146);" d="M464.861,483.009l-30.976-16.285l-30.976,16.285c-11.69,6.145-25.401-3.808-23.167-16.832
	l5.916-34.492L360.6,407.258c-9.457-9.218-4.228-25.334,8.849-27.234l34.632-5.033l15.487-31.381
	c5.845-11.843,22.788-11.85,28.636,0l15.488,31.381l34.632,5.033c13.069,1.899,18.311,18.01,8.849,27.235l-25.059,24.427
	l5.916,34.492C490.264,479.212,476.542,489.151,464.861,483.009z"/>
<g>
	<path style="fill:rgb(196,210,255);" d="M322.142,93.273c0-36.472-29.671-66.144-66.142-66.145v132.292
		C292.47,159.416,322.142,129.744,322.142,93.273z"/>
	<path style="fill:rgb(196,210,255);" d="M256,180.131v138.604h106.667c8.818,0,15.967-7.149,15.967-15.967
		C378.634,235.148,323.619,180.133,256,180.131z"/>
</g>
<path style="fill:rgb(87,101,146);" d="M320.436,380.025l-34.632-5.033l-15.488-31.381c-2.69-5.45-8.241-8.901-14.318-8.901v132.014
	l30.976,16.284c11.625,6.112,25.415-3.727,23.167-16.832l-5.916-34.492l25.059-24.427
	C338.742,398.04,333.513,381.925,320.436,380.025z"/>
<g>
</g>
<g>
</g>
<g>
</g>
<g>
</g>
<g>
</g>
<g>
</g>
<g>
</g>
<g>
</g>
<g>
</g>
<g>
</g>
<g>
</g>
<g>
</g>
<g>
</g>
<g>
</g>
<g>
</g>
</svg>
