<?xml version="1.0" encoding="iso-8859-1"?>
<!-- Generator: Adobe Illustrator 16.0.0, SVG Export Plug-In . SVG Version: 6.00 Build 0)  -->
<!DOCTYPE svg PUBLIC "-//W3C//DTD SVG 1.1//EN" "http://www.w3.org/Graphics/SVG/1.1/DTD/svg11.dtd">
<svg version="1.1" id="Capa_1" xmlns="http://www.w3.org/2000/svg" xmlns:xlink="http://www.w3.org/1999/xlink" x="0px" y="0px"
	 width="64.734px" height="64.734px" viewBox="0 0 64.734 64.734" style="enable-background:new 0 0 64.734 64.734;"
	 xml:space="preserve">
<g>
	<g>
		<path style="fill:rgb(0,14,59);" d="M59.583,49.727c-0.447-1.121-1.344-1.346-2.463-1.793c-5.152-2.016-9.408-2.688-14.336-4.479
			c-0.449-0.225-1.793-1.121-1.793-3.586c0-1.119-0.225-1.566-1.344-1.566c-0.447,0-0.226,0-0.447-0.672
			c-0.449-2.24-0.225-3.584-0.225-3.809s0.446-0.672,0.446-0.896c1.793-2.24,2.24-5.152,2.24-6.719c0,0,0.226,0.224,0.672-0.673
			c0.447-1.119,0.447-1.345,0.896-2.688c0.447-0.896,0.447-2.912-0.672-2.912c-0.672,0.225-0.449,0-0.449-0.896
			c0-2.688,0-3.809,0-6.496c-0.223-2.239-1.567-3.584-2.688-4.48c-1.568-1.12-2.018-1.344-2.689-2.016
			c-0.672-0.448-0.446-1.12,0-2.017c0.447-0.447,0.896-0.672,1.119-0.896c0,0-0.223,0-0.447,0c4.257,2.24,7.169,6.72,7.169,11.647
			v3.584c-0.673,0.448-1.119,2.017-1.119,3.36c0,1.119,0.226,2.016,0.446,2.688l-0.895,4.703c-0.447,0.225-0.674,0.673-0.674,1.12
			c0,0.672,0.449,1.345,1.346,1.345c0.672,0,1.344-0.448,1.344-1.345c0-0.447-0.225-0.672-0.446-0.896l0.896-4.031
			c1.119-0.225,2.016-1.793,2.016-3.584c0-1.345-0.448-2.688-1.12-3.36V14.78C46.366,6.495,39.647,0,31.582,0
			c-8.063,0-14.783,6.72-14.783,14.783v3.584c-0.673,0.448-1.12,2.017-1.12,3.36c0,2.016,0.896,3.584,2.016,3.584
			c1.12,0,2.016-1.568,2.016-3.584c0-1.345-0.447-2.688-1.119-3.36v-3.584c0-7.392,6.048-13.216,13.216-13.216
			c2.016,0,4.032,0.448,5.825,1.344c-0.448,0-4.033,0.448-5.376,0.896c-2.688,0.672-5.601,1.568-7.841,3.584
			c-1.567,1.12-2.912,2.688-3.136,4.928c0,1.119,0,4.703,0,6.496c0,0.447,0,0.896-0.448,0.672c-1.567,0-0.672,2.464-0.447,2.688
			c0.447,1.567,0.672,1.792,0.896,2.688c0.224,0.896,0.448,0.673,0.448,0.673c0.448,1.792,1.12,4.929,2.464,6.721
			c0.224,0.225,0.448,0.448,0.448,0.896c-0.225,1.119-0.225,2.688-0.448,3.81c0,0.224-0.224,0.672-0.448,0.672
			c-1.12,0-1.344,0.673-1.12,1.566c0,1.793-1.12,3.137-1.792,3.584c-2.464,1.12-11.199,3.584-13.888,4.479
			c-2.016,0.447-2.464,1.119-2.688,2.016l-2.465,6.271c10.977,0,16.576,6.721,28,8.736c0,0,1.568,0.447,2.688,0.447
			s2.688-0.447,2.688-0.447c11.647-2.018,19.713-8.736,27.774-8.736L59.583,49.727z"/>
	</g>
</g>
<g>
</g>
<g>
</g>
<g>
</g>
<g>
</g>
<g>
</g>
<g>
</g>
<g>
</g>
<g>
</g>
<g>
</g>
<g>
</g>
<g>
</g>
<g>
</g>
<g>
</g>
<g>
</g>
<g>
</g>
</svg>
