<?xml version="1.0" encoding="iso-8859-1"?>
<!-- Generator: Adobe Illustrator 19.0.0, SVG Export Plug-In . SVG Version: 6.00 Build 0)  -->
<svg version="1.1" id="Layer_1" xmlns="http://www.w3.org/2000/svg" xmlns:xlink="http://www.w3.org/1999/xlink" x="0px" y="0px"
	 viewBox="0 0 473.654 473.654" style="enable-background:new 0 0 473.654 473.654;" xml:space="preserve">
<circle style="fill:rgb(196,210,255);" cx="236.827" cy="236.827" r="236.827"/>
<path style="fill:#E9C29C;" d="M359.758,236.812c0,67.914-55.039,122.946-122.942,122.946c-67.907,0-122.942-55.035-122.942-122.946
	c0-67.899,55.035-122.938,122.942-122.938C304.719,113.87,359.758,168.913,359.758,236.812z"/>
<path style="fill:#A46434;" d="M359.758,236.812l-83.826-75.438c0,0-17.845,29.558-65.461,51.098
	c-45.903,20.758-96.597,24.337-96.597,24.337c0-67.899,55.035-122.938,122.942-122.938
	C304.719,113.87,359.758,168.913,359.758,236.812z"/>
<g>
	<ellipse style="fill:#343433;" cx="199.955" cy="255.076" rx="16.843" ry="17.793"/>
	<ellipse style="fill:#343433;" cx="272.952" cy="255.076" rx="16.843" ry="17.793"/>
</g>
<g>
	<path style="fill:#FFFFFF;" d="M284.956,248.338c0,3.923-3.01,7.113-6.739,7.113c-3.706,0-6.72-3.194-6.72-7.113
		c0-3.938,3.014-7.12,6.72-7.12C281.945,241.217,284.956,244.4,284.956,248.338z"/>
	<path style="fill:#FFFFFF;" d="M211.783,248.338c0,3.923-3.01,7.113-6.742,7.113c-3.713,0-6.727-3.194-6.727-7.113
		c0-3.938,3.014-7.12,6.727-7.12C208.773,241.217,211.783,244.4,211.783,248.338z"/>
</g>
<g>
	<path style="fill:rgb(26,39,83);" d="M137.773,241.868c0,26.398,0.266,47.788-18.144,47.788c-18.414,0-33.338-21.394-33.338-47.788
		s14.925-47.792,33.338-47.792C138.039,194.073,137.773,215.474,137.773,241.868z"/>
	<path style="fill:rgb(26,39,83);" d="M387.094,241.868c0,26.398-14.925,47.788-33.342,47.788c-18.41,0-18.144-21.394-18.144-47.788
		s-0.266-47.792,18.144-47.792C372.166,194.073,387.094,215.474,387.094,241.868z"/>
	<path style="fill:rgb(26,39,83);" d="M237.628,104.85c74.646,0,136.206,70.547,145.316,140.589c0.748-5.879,1.193-11.869,1.193-17.965
		c0-78.516-65.6-158.55-146.513-158.55S91.118,148.958,91.118,227.475c0,6.092,0.445,12.083,1.2,17.965
		C101.428,175.397,162.986,104.85,237.628,104.85z"/>
</g>
<path style="fill:#24626C;" d="M291.35,373.415c2.928,9.54-6.956,18.604-21.446,23.051c-14.495,4.461-28.084,2.621-31.012-6.918
	c-2.947-9.547,5.882-23.182,20.381-27.632C273.755,357.451,288.407,363.872,291.35,373.415z"/>
<path style="fill:rgb(26,39,83);" d="M395.983,243.349h-0.838v-0.452c0-5.041-4.087-9.125-9.128-9.125c-5.041,0-9.128,4.084-9.128,9.125
	v12.415c0,3.25,1.705,6.077,4.259,7.692c-9.637,56.453-45.163,93.366-89.092,112.255c-0.026-0.067,0-0.138-0.026-0.206
	c-2.27-7.378-15.859-9.749-30.343-5.288c-14.495,4.454-24.389,14.046-22.12,21.424c2.266,7.371,15.845,9.742,30.339,5.28
	c6.929-2.124,12.744-5.441,16.75-9.117C351.445,374.709,395.983,315.059,395.983,243.349z"/>
<g>
</g>
<g>
</g>
<g>
</g>
<g>
</g>
<g>
</g>
<g>
</g>
<g>
</g>
<g>
</g>
<g>
</g>
<g>
</g>
<g>
</g>
<g>
</g>
<g>
</g>
<g>
</g>
<g>
</g>
</svg>
