<?xml version="1.0" encoding="iso-8859-1"?>
<!-- Generator: Adobe Illustrator 19.0.0, SVG Export Plug-In . SVG Version: 6.00 Build 0)  -->
<svg version="1.1" id="Layer_1" xmlns="http://www.w3.org/2000/svg" xmlns:xlink="http://www.w3.org/1999/xlink" x="0px" y="0px"
	 viewBox="0 0 512 512" style="enable-background:new 0 0 512 512;" xml:space="preserve">
<g>
	<path style="fill:rgb(196,210,255);" d="M256,48.552c-141.383,0-256,114.617-256,256c0,60.054,20.736,115.235,55.358,158.897h401.284
		C491.264,419.787,512,364.606,512,304.552C512,163.169,397.383,48.552,256,48.552"/>
	<path style="fill:#C6421E;" d="M240.517,272.808c-14.027,6.85-22.837,22.722-18.882,40.06
		c2.913,12.765,13.286,23.128,26.041,26.041c17.346,3.964,33.218-4.855,40.068-18.882c10.152-20.78,19.465-41.966,31.364-61.802
		l25.167-41.949l-41.949,25.167C282.492,253.343,261.306,262.647,240.517,272.808"/>
	<g>
		<path style="fill:#3F3F3F;" d="M59.797,384.487c-1.836-4.511-6.991-6.7-11.511-4.846L15.8,392.882
			c2.039,5.535,4.193,11.026,6.603,16.375l32.547-13.259C59.462,394.153,61.633,389.007,59.797,384.487"/>
		<path style="fill:#3F3F3F;" d="M79.448,304.552c0-4.873-3.955-8.828-8.828-8.828h-70.4C0.124,298.664,0,301.594,0,304.552
			c0,2.975,0.282,5.879,0.38,8.828h70.241C75.494,313.379,79.448,309.425,79.448,304.552"/>
		<path style="fill:#3F3F3F;" d="M60.737,222.34c1.889-4.493-0.212-9.675-4.705-11.564l-32.397-13.639
			c-2.472,5.323-4.767,10.743-6.868,16.26l32.406,13.656c1.121,0.468,2.286,0.689,3.425,0.689
			C56.041,227.743,59.316,225.713,60.737,222.34"/>
		<path style="fill:#3F3F3F;" d="M68.888,129.923l24.823,24.823c1.721,1.721,3.981,2.578,6.241,2.578
			c2.251,0,4.511-0.856,6.241-2.578c3.443-3.452,3.443-9.039,0-12.491L81.37,117.44C77.071,121.457,72.904,125.624,68.888,129.923"
			/>
		<path style="fill:#3F3F3F;" d="M164.556,103.504c1.395,3.425,4.696,5.5,8.183,5.5c1.103,0,2.233-0.212,3.328-0.653
			c4.511-1.845,6.682-6.991,4.846-11.511L167.619,64.23c-5.544,2.039-10.964,4.317-16.322,6.727L164.556,103.504z"/>
		<path style="fill:#3F3F3F;" d="M256,128c4.873,0,8.828-3.955,8.828-8.828v-70.4c-2.94-0.097-5.87-0.221-8.828-0.221
			c-2.957,0-5.888,0.124-8.828,0.221v70.4C247.172,124.045,251.127,128,256,128"/>
		<path style="fill:#3F3F3F;" d="M338.211,109.289c1.121,0.477,2.278,0.697,3.425,0.697c3.443,0,6.718-2.03,8.139-5.402
			l13.639-32.397c-5.323-2.472-10.743-4.767-16.26-6.868l-13.656,32.406C331.608,102.227,333.718,107.4,338.211,109.289"/>
		<path style="fill:#3F3F3F;" d="M430.629,117.44l-24.823,24.823c-3.443,3.443-3.443,9.031,0,12.482
			c1.73,1.721,3.99,2.586,6.25,2.586c2.251,0,4.511-0.865,6.241-2.586l24.814-24.823
			C439.095,125.623,434.928,121.456,430.629,117.44"/>
	</g>
	<g>
		<path style="fill:#C6421E;" d="M463.711,229.462l32.618-13.286c-2.048-5.553-4.326-10.973-6.735-16.331l-32.547,13.259
			c-4.511,1.845-6.682,6.991-4.846,11.511c1.395,3.425,4.705,5.5,8.183,5.5C461.496,230.115,462.617,229.903,463.711,229.462"/>
		<path style="fill:#C6421E;" d="M512,304.552c0-2.957-0.124-5.888-0.221-8.828h-70.4c-4.873,0-8.828,3.955-8.828,8.828
			s3.955,8.828,8.828,8.828h70.241C511.717,310.431,512,307.527,512,304.552"/>
		<path style="fill:#C6421E;" d="M495.089,395.642l-32.265-13.586c-4.502-1.889-9.666,0.212-11.564,4.705
			c-1.889,4.493,0.221,9.675,4.705,11.564l32.335,13.621C490.772,406.615,492.979,401.159,495.089,395.642"/>
	</g>
	<polygon style="fill:#FFFFFF;" points="203.03,189.793 308.961,189.793 308.961,154.483 203.03,154.483 	"/>
	<g>
		<path style="fill:#74B73E;" d="M185.379,401.655c0,14.627-11.855,26.483-26.483,26.483s-26.483-11.855-26.483-26.483
			c0-14.627,11.855-26.483,26.483-26.483S185.379,387.028,185.379,401.655"/>
		<path style="fill:#74B73E;" d="M379.586,401.655c0,14.627-11.855,26.483-26.483,26.483s-26.483-11.855-26.483-26.483
			c0-14.627,11.855-26.483,26.483-26.483S379.586,387.028,379.586,401.655"/>
	</g>
</g>
<g>
</g>
<g>
</g>
<g>
</g>
<g>
</g>
<g>
</g>
<g>
</g>
<g>
</g>
<g>
</g>
<g>
</g>
<g>
</g>
<g>
</g>
<g>
</g>
<g>
</g>
<g>
</g>
<g>
</g>
</svg>
