<?xml version="1.0" encoding="iso-8859-1"?>
<!-- Generator: Adobe Illustrator 19.0.0, SVG Export Plug-In . SVG Version: 6.00 Build 0)  -->
<svg version="1.1" id="Layer_1" xmlns="http://www.w3.org/2000/svg" xmlns:xlink="http://www.w3.org/1999/xlink" x="0px" y="0px"
	 viewBox="0 0 457.208 457.208" style="enable-background:new 0 0 457.208 457.208;" xml:space="preserve">
<g>
	<g>
		<g>
			<path style="fill:rgb(0,14,59);" d="M442.468,196.301c8.182-0.142,14.74-6.814,14.74-14.998v-72.778c0-8.284-6.716-15-15-15H15c-8.284,0-15,6.716-15,15
				v72.768c0,3.996,1.595,7.828,4.431,10.644c2.835,2.815,6.652,4.387,10.675,4.356c0.158-0.002,0.315-0.005,0.478-0.01
				c17.732,0.105,32.125,14.564,32.125,32.321c0,17.764-14.405,32.226-32.146,32.32c-0.148-0.004-0.297-0.007-0.447-0.009
				c-0.039,0-0.077,0-0.116,0c-3.957,0-7.755,1.563-10.565,4.353C1.596,268.084,0,271.917,0,275.915v72.768c0,8.284,6.716,15,15,15
				h427.208c8.284,0,15-6.716,15-15v-72.778c0-8.183-6.559-14.855-14.74-14.998c-17.507-0.303-31.749-14.794-31.749-32.303
				C410.719,211.095,424.961,196.603,442.468,196.301z M381.396,300.513c0,8.284-6.716,15-15,15H90.813c-8.284,0-15-6.716-15-15
				v-143.82c0-8.284,6.716-15,15-15h275.583c8.284,0,15,6.716,15,15V300.513z"/>
			<rect style="fill:rgb(0,14,59);" x="105.813" y="171.693" width="159.396" height="113.82"/>
			<rect style="fill:rgb(0,14,59);" x="295.208" y="171.693" width="56.188" height="113.82"/>
		</g>
	</g>
</g>
<g>
</g>
<g>
</g>
<g>
</g>
<g>
</g>
<g>
</g>
<g>
</g>
<g>
</g>
<g>
</g>
<g>
</g>
<g>
</g>
<g>
</g>
<g>
</g>
<g>
</g>
<g>
</g>
<g>
</g>
</svg>
